<svg xmlns="http://www.w3.org/2000/svg" viewBox="0 0 64 64">
  <defs>
    <linearGradient id="bg" x1="0" y1="0" x2="1" y2="1">
      <stop offset="0" stop-color="#1b1e34"/>
      <stop offset="1" stop-color="#0e1020"/>
    </linearGradient>
    <linearGradient id="bell" x1="0" y1="0" x2="0" y2="1">
      <stop offset="0" stop-color="#ffd166"/>
      <stop offset="1" stop-color="#f4a261"/>
    </linearGradient>
  </defs>
  <rect width="64" height="64" rx="14" fill="url(#bg)"/>
  <path fill="url(#bell)" d="M32 11c-1.8 0-3.2 1.4-3.2 3.2v1.2C22.5 16.9 18 22.6 18 29.2v8.3c0 1.6-.65 3.1-1.8 4.2l-2.1 2c-1.3 1.3-.4 3.5 1.4 3.5h33c1.8 0 2.7-2.2 1.4-3.5l-2.1-2c-1.15-1.1-1.8-2.6-1.8-4.2v-8.3c0-6.6-4.5-12.3-10.8-13.8v-1.2c0-1.8-1.4-3.2-3.2-3.2z"/>
  <path fill="url(#bell)" d="M27.4 50a4.7 4.7 0 0 0 9.2 0z"/>
  <circle cx="46" cy="18" r="8.5" fill="#ef476f" stroke="#0e1020" stroke-width="2.5"/>
</svg>
